<?xml version="1.0" encoding="utf-8"?>
<!-- Generator: Adobe Illustrator 27.9.3, SVG Export Plug-In . SVG Version: 9.03 Build 53313)  -->
<svg version="1.1" id="Layer_1" xmlns="http://www.w3.org/2000/svg" xmlns:xlink="http://www.w3.org/1999/xlink" x="0px" y="0px"
	 viewBox="0 0 144 72" style="enable-background:new 0 0 144 72;" xml:space="preserve">
<style type="text/css">
	.st0{fill:none;stroke:#FFFFFF;stroke-miterlimit:10;}
	.st1{fill:none;stroke:#FFFFFF;stroke-width:1;stroke-miterlimit:9.9998;}
	.st2{fill:none;stroke:#FFFFFF;stroke-width:1;stroke-miterlimit:10.0005;}
	.st3{fill:none;stroke:#FFFFFF;stroke-width:1;stroke-miterlimit:10.0002;}
	.st4{fill:none;stroke:#FFFFFF;stroke-width:1;stroke-miterlimit:10.0004;}
	.st5{fill:none;stroke:#FFFFFF;stroke-width:1;stroke-miterlimit:10.0003;}
	.st6{fill:none;stroke:#FFFFFF;stroke-width:1;stroke-miterlimit:9.9996;}
	.st7{fill:none;stroke:#FFFFFF;stroke-width:1;stroke-miterlimit:9.9997;}
	.st8{fill:none;stroke:#FFFFFF;stroke-width:1;stroke-miterlimit:10.0001;}
	.st9{fill:none;stroke:#FFFFFF;stroke-width:0.9999;stroke-miterlimit:9.9993;}
	.st10{fill:none;stroke:#FFFFFF;stroke-width:1;stroke-miterlimit:9.9999;}
	.st11{fill:none;stroke:#FFFFFF;stroke-width:1.0001;stroke-miterlimit:10.0006;}
</style>
<g id="Layer_2_00000111902119387018745140000005134531474666575804_">
	<rect x="-1" y="-1" width="146.4" height="75.3"/>
</g>
<g id="Layer_1_00000045621264871988982900000011477627032546186643_">
	<g>
		<path class="st0" d="M19.1,39.4c6.6,7.7-7.1,7.4-12,5.7s-12.8-10.6-5.7-12c5.1-1,7.1-7.4,12-5.7C18.3,29.1,15.7,35.5,19.1,39.4z"
			/>
		<ellipse transform="matrix(0.9833 -0.1819 0.1819 0.9833 -4.0824 0.549)" class="st1" cx="1" cy="22.5" rx="3.7" ry="4.3"/>
		<ellipse transform="matrix(0.2441 -0.9698 0.9698 0.2441 -8.9908 26.5395)" class="st2" cx="12.5" cy="19" rx="4.3" ry="3.7"/>
		<ellipse transform="matrix(0.4928 -0.8702 0.8702 0.4928 -9.2708 31.996)" class="st2" cx="22.8" cy="24" rx="4.3" ry="3.7"/>
		<ellipse transform="matrix(0.7554 -0.6553 0.6553 0.7554 -15.1621 26.4835)" class="st3" cx="27.9" cy="33.5" rx="4.3" ry="3.7"/>
	</g>
	<g>
		<path class="st0" d="M45.4,60.1c9.6,3.1-2.2,10.1-7.3,11.1S21.7,68.9,27,63.9c3.8-3.5,2.2-10.1,7.3-11.1
			C39.3,51.7,40.4,58.5,45.4,60.1z"/>
		<ellipse transform="matrix(0.7425 -0.6699 0.6699 0.7425 -31.5538 28.3262)" class="st4" cx="21.1" cy="55.2" rx="3.7" ry="4.3"/>
		<ellipse transform="matrix(0.954 -0.2999 0.2999 0.954 -12.5069 10.8521)" class="st5" cx="29.1" cy="46.2" rx="3.7" ry="4.3"/>
		
			<ellipse transform="matrix(0.9994 -3.589840e-02 3.589840e-02 0.9994 -1.5884 1.4804)" class="st4" cx="40.4" cy="45" rx="3.7" ry="4.3"/>
		<ellipse transform="matrix(0.3003 -0.9538 0.9538 0.3003 -13.3244 82.8001)" class="st6" cx="49.8" cy="50.5" rx="4.3" ry="3.7"/>
	</g>
	<g>
		<path class="st0" d="M63.9,24.1c7.2,7.1-6.5,8-11.5,6.7c-5-1.3-13.6-9.5-6.7-11.5c5-1.4,6.5-8,11.5-6.7S60.2,20.5,63.9,24.1z"/>
		<ellipse transform="matrix(0.9646 -0.2636 0.2636 0.9646 -0.7594 12.014)" class="st7" cx="44.4" cy="8.8" rx="3.7" ry="4.3"/>
		<ellipse transform="matrix(0.162 -0.9868 0.9868 0.162 42.2843 58.5678)" class="st8" cx="55.6" cy="4.4" rx="4.3" ry="3.7"/>
		<ellipse transform="matrix(0.4182 -0.9084 0.9084 0.4182 30.9114 65.1201)" class="st4" cx="66.3" cy="8.4" rx="4.3" ry="3.7"/>
		<ellipse transform="matrix(0.6978 -0.7162 0.7162 0.6978 9.2179 56.9797)" class="st9" cx="72.1" cy="17.6" rx="4.3" ry="3.7"/>
	</g>
	<g>
		<path class="st0" d="M44.8,35.8c3.2,2.3-2,3.5-4,3.3c-2-0.2-5.8-2.8-3.3-4c1.8-0.9,2-3.5,4-3.3C43.5,32.1,43.1,34.7,44.8,35.8z"/>
		<ellipse transform="matrix(0.9092 -0.4163 0.4163 0.9092 -9.7002 17.959)" class="st1" cx="36.3" cy="31.2" rx="1.4" ry="1.7"/>
		<ellipse class="st0" cx="40.4" cy="28.8" rx="1.4" ry="1.7"/>
		<ellipse transform="matrix(0.2655 -0.9641 0.9641 0.2655 4.2048 64.8917)" class="st10" cx="44.7" cy="29.7" rx="1.7" ry="1.4"/>
		<ellipse transform="matrix(0.5726 -0.8198 0.8198 0.5726 -6.5997 52.974)" class="st7" cx="47.5" cy="32.8" rx="1.7" ry="1.4"/>
	</g>
	<g>
		<path class="st0" d="M33.9,14.3c3.2,2.3-2,3.5-4,3.3s-5.8-2.8-3.3-4c1.8-0.9,2-3.5,4-3.3C32.7,10.5,32.3,13.1,33.9,14.3z"/>
		<ellipse transform="matrix(0.9092 -0.4163 0.4163 0.9092 -1.7112 11.4929)" class="st1" cx="25.5" cy="9.7" rx="1.4" ry="1.7"/>
		<ellipse class="st0" cx="29.5" cy="7.3" rx="1.4" ry="1.7"/>
		<ellipse transform="matrix(0.2655 -0.9641 0.9641 0.2655 17.0245 38.6223)" class="st10" cx="33.9" cy="8.1" rx="1.7" ry="1.4"/>
		<ellipse transform="matrix(0.5726 -0.8198 0.8198 0.5726 6.4363 34.8876)" class="st7" cx="36.7" cy="11.3" rx="1.7" ry="1.4"/>
	</g>
	<g>
		<path class="st0" d="M87.6,44.9c9.2,4.2-3.3,9.8-8.4,10.3S63,51,68.9,46.7c4.2-3.1,3.3-9.8,8.4-10.3S82.8,42.7,87.6,44.9z"/>
		<ellipse transform="matrix(0.8113 -0.5846 0.5846 0.8113 -9.7754 44.426)" class="st1" cx="63.9" cy="37.4" rx="3.7" ry="4.3"/>
		<ellipse transform="matrix(0.9811 -0.1937 0.1937 0.9811 -4.289 14.6771)" class="st4" cx="72.9" cy="29.3" rx="3.7" ry="4.3"/>
		
			<ellipse transform="matrix(7.369857e-02 -0.9973 0.9973 7.369857e-02 48.8633 111.2219)" class="st3" cx="84.3" cy="29.3" rx="4.3" ry="3.7"/>
		<ellipse transform="matrix(0.4029 -0.9152 0.9152 0.4029 22.7417 106.5008)" class="st6" cx="93" cy="35.8" rx="4.3" ry="3.7"/>
	</g>
	<g>
		<path class="st0" d="M113.7,25.2c6.4,7.9-7.3,7.2-12.2,5.4c-4.8-1.9-12.5-10.9-5.4-12.2c5.1-0.9,7.3-7.2,12.2-5.4
			C113.2,14.9,110.5,21.1,113.7,25.2z"/>
		
			<ellipse transform="matrix(0.9877 -0.1564 0.1564 0.9877 -4.465853e-02 15.1124)" class="st8" cx="96" cy="7.8" rx="3.7" ry="4.3"/>
		<ellipse transform="matrix(0.269 -0.9631 0.9631 0.269 74.2162 107.0977)" class="st6" cx="107.7" cy="4.7" rx="4.3" ry="3.7"/>
		
			<ellipse transform="matrix(0.5151 -0.8571 0.8571 0.5151 48.7152 105.7595)" class="st11" cx="117.8" cy="9.8" rx="4.3" ry="3.7"/>
		<ellipse transform="matrix(0.772 -0.6356 0.6356 0.772 15.5328 82.4151)" class="st10" cx="122.6" cy="19.6" rx="4.3" ry="3.7"/>
	</g>
	<g>
		<path class="st0" d="M9.5,60.1c2.9,2.6-2.3,3.2-4.3,2.8s-5.5-3.4-2.8-4.3c1.9-0.7,2.4-3.2,4.3-2.8S8,58.7,9.5,60.1z"/>
		<ellipse transform="matrix(0.9493 -0.3143 0.3143 0.9493 -17.0651 3.2834)" class="st1" cx="1.6" cy="54.6" rx="1.4" ry="1.7"/>
		<ellipse transform="matrix(0.1095 -0.994 0.994 0.1095 -47.0205 52.7239)" class="st8" cx="5.9" cy="52.6" rx="1.7" ry="1.4"/>
		<ellipse transform="matrix(0.3694 -0.9293 0.9293 0.3694 -43.7428 43.4392)" class="st5" cx="10.1" cy="53.9" rx="1.7" ry="1.4"/>
		<ellipse transform="matrix(0.6589 -0.7522 0.7522 0.6589 -38.8628 29.0396)" class="st1" cx="12.6" cy="57.4" rx="1.7" ry="1.4"/>
	</g>
	<g>
		<path class="st0" d="M86.7,15.6c2.9,2.6-2.3,3.2-4.3,2.8s-5.5-3.4-2.8-4.3c1.9-0.7,2.3-3.2,4.3-2.8C85.8,11.7,85.2,14.2,86.7,15.6
			z"/>
		<ellipse transform="matrix(0.9493 -0.3143 0.3143 0.9493 0.8334 25.2734)" class="st1" cx="78.8" cy="10.1" rx="1.4" ry="1.7"/>
		<ellipse transform="matrix(0.1095 -0.994 0.994 0.1095 65.9264 89.7701)" class="st8" cx="83.1" cy="8.1" rx="1.7" ry="1.4"/>
		<ellipse transform="matrix(0.3694 -0.9293 0.9293 0.3694 46.2646 87.0475)" class="st5" cx="87.3" cy="9.4" rx="1.7" ry="1.4"/>
		<ellipse transform="matrix(0.6589 -0.7522 0.7522 0.6589 20.929 71.8842)" class="st1" cx="89.7" cy="12.9" rx="1.7" ry="1.4"/>
	</g>
	<g>
		<path class="st0" d="M63.6,62.3c2.9,2.6-2.3,3.2-4.3,2.8s-5.5-3.4-2.8-4.3c1.9-0.7,2.3-3.2,4.3-2.8C62.8,58.4,62.1,61,63.6,62.3z"
			/>
		<ellipse transform="matrix(0.9493 -0.3143 0.3143 0.9493 -15.028 20.4006)" class="st1" cx="55.7" cy="56.8" rx="1.4" ry="1.7"/>
		<ellipse transform="matrix(0.1095 -0.994 0.994 0.1095 -1.0635 108.5041)" class="st8" cx="60" cy="54.8" rx="1.7" ry="1.4"/>
		<ellipse transform="matrix(0.3694 -0.9293 0.9293 0.3694 -11.7086 95.1218)" class="st5" cx="64.2" cy="56.2" rx="1.7" ry="1.4"/>
		<ellipse transform="matrix(0.6589 -0.7522 0.7522 0.6589 -22.0969 70.498)" class="st1" cx="66.7" cy="59.6" rx="1.7" ry="1.4"/>
	</g>
	<g>
		<path class="st0" d="M9.6,9.4c2.9,2.6-2.3,3.2-4.3,2.8s-5.5-3.4-2.8-4.3c1.9-0.7,2.4-3.2,4.3-2.8S8.1,8.1,9.6,9.4z"/>
		<ellipse transform="matrix(0.9493 -0.3143 0.3143 0.9493 -1.139 0.7574)" class="st1" cx="1.8" cy="3.9" rx="1.4" ry="1.7"/>
		<ellipse transform="matrix(0.1095 -0.994 0.994 0.1095 3.4411 7.7533)" class="st8" cx="6" cy="2" rx="1.7" ry="1.4"/>
		<ellipse transform="matrix(0.3694 -0.9293 0.9293 0.3694 3.3998 11.6137)" class="st5" cx="10.3" cy="3.3" rx="1.7" ry="1.4"/>
		<ellipse transform="matrix(0.6589 -0.7522 0.7522 0.6589 -0.7198 11.8593)" class="st1" cx="12.7" cy="6.7" rx="1.7" ry="1.4"/>
	</g>
	<g>
		<path class="st0" d="M103.1,49.3c2.9,2.6-2.3,3.2-4.3,2.8s-5.5-3.4-2.8-4.3c1.9-0.7,2.3-3.2,4.3-2.8
			C102.2,45.5,101.6,48,103.1,49.3z"/>
		<ellipse transform="matrix(0.9493 -0.3143 0.3143 0.9493 -8.9508 32.1356)" class="st1" cx="95.2" cy="43.8" rx="1.4" ry="1.7"/>
		<ellipse transform="matrix(0.1095 -0.994 0.994 0.1095 46.945 136.142)" class="st8" cx="99.5" cy="41.9" rx="1.7" ry="1.4"/>
		
			<ellipse transform="matrix(0.3694 -0.9293 0.9293 0.3694 25.2128 123.5767)" class="st5" cx="103.7" cy="43.2" rx="1.7" ry="1.4"/>
		<ellipse transform="matrix(0.6589 -0.7522 0.7522 0.6589 1.1095 95.7387)" class="st1" cx="106.1" cy="46.6" rx="1.7" ry="1.4"/>
	</g>
	<g>
		<path class="st0" d="M127.9,64.3c9.6,3.1-2.2,10.1-7.3,11.1s-16.4-2.3-11.1-7.3c3.8-3.5,2.2-10.1,7.3-11.1
			C121.8,56,122.9,62.7,127.9,64.3z"/>
		
			<ellipse transform="matrix(0.7425 -0.6699 0.6699 0.7425 -13.1633 84.7052)" class="st4" cx="103.6" cy="59.5" rx="3.7" ry="4.3"/>
		<ellipse transform="matrix(0.954 -0.2999 0.2999 0.954 -9.9903 35.7966)" class="st5" cx="111.6" cy="50.4" rx="3.7" ry="4.3"/>
		
			<ellipse transform="matrix(0.9994 -3.589840e-02 3.589840e-02 0.9994 -1.6885 4.4456)" class="st4" cx="123" cy="49.2" rx="3.7" ry="4.3"/>
		
			<ellipse transform="matrix(0.3003 -0.9538 0.9538 0.3003 40.3312 164.4994)" class="st6" cx="132.3" cy="54.8" rx="4.3" ry="3.7"/>
	</g>
	<g>
		<path class="st0" d="M155.3,36.9c9.6,3.1-2.2,10.1-7.3,11.1s-16.4-2.3-11.1-7.3c3.8-3.5,2.2-10.1,7.3-11.1S150.3,35.3,155.3,36.9z
			"/>
		<ellipse transform="matrix(0.7425 -0.6699 0.6699 0.7425 12.296 95.9771)" class="st4" cx="131" cy="32" rx="3.7" ry="4.3"/>
		<ellipse transform="matrix(0.954 -0.2999 0.2999 0.954 -0.4922 42.7442)" class="st5" cx="139" cy="23" rx="3.7" ry="4.3"/>
		
			<ellipse transform="matrix(0.9994 -3.589840e-02 3.589840e-02 0.9994 -0.6847 5.4109)" class="st4" cx="150.3" cy="21.8" rx="3.7" ry="4.3"/>
		
			<ellipse transform="matrix(0.3003 -0.9538 0.9538 0.3003 85.7015 171.3981)" class="st6" cx="159.7" cy="27.3" rx="4.3" ry="3.7"/>
	</g>
	<g>
		<path class="st0" d="M122.2,39.9c2.9,2.6-2.3,3.2-4.3,2.8s-5.5-3.4-2.8-4.3c1.9-0.7,2.3-3.2,4.3-2.8S120.7,38.5,122.2,39.9z"/>
		<ellipse transform="matrix(0.9493 -0.3143 0.3143 0.9493 -4.998 37.6708)" class="st1" cx="114.3" cy="34.3" rx="1.4" ry="1.7"/>
		<ellipse transform="matrix(0.1095 -0.994 0.994 0.1095 73.4303 146.7142)" class="st8" cx="118.6" cy="32.4" rx="1.7" ry="1.4"/>
		
			<ellipse transform="matrix(0.3694 -0.9293 0.9293 0.3694 46.1068 135.3775)" class="st5" cx="122.8" cy="33.7" rx="1.7" ry="1.4"/>
		
			<ellipse transform="matrix(0.6589 -0.7522 0.7522 0.6589 14.7811 106.8927)" class="st1" cx="125.3" cy="37.1" rx="1.7" ry="1.4"/>
	</g>
	<g>
		<path class="st0" d="M135.2,11.5c2.9,2.6-2.4,3.2-4.3,2.8c-2-0.4-5.5-3.4-2.8-4.3c1.9-0.7,2.4-3.2,4.3-2.8
			C134.4,7.6,133.7,10.2,135.2,11.5z"/>
		<ellipse transform="matrix(0.9493 -0.3143 0.3143 0.9493 4.5628 40.3277)" class="st1" cx="127.3" cy="6" rx="1.4" ry="1.7"/>
		<ellipse transform="matrix(0.1095 -0.994 0.994 0.1095 113.1772 134.4346)" class="st8" cx="131.6" cy="4.1" rx="1.7" ry="1.4"/>
		<ellipse transform="matrix(0.3694 -0.9293 0.9293 0.3694 80.6348 129.616)" class="st5" cx="135.8" cy="5.4" rx="1.7" ry="1.4"/>
		<ellipse transform="matrix(0.6589 -0.7522 0.7522 0.6589 40.5256 107.0277)" class="st1" cx="138.3" cy="8.8" rx="1.7" ry="1.4"/>
	</g>
</g>
</svg>
